<?xml version="1.0" encoding="utf-8"?>
<!-- Generator: Adobe Illustrator 21.0.0, SVG Export Plug-In . SVG Version: 6.00 Build 0)  -->
<svg version="1.1" id="Layer_1" xmlns="http://www.w3.org/2000/svg" xmlns:xlink="http://www.w3.org/1999/xlink" x="0px" y="0px"
	 viewBox="0 0 512 512" style="enable-background:new 0 0 512 512;" xml:space="preserve">
<g>
	<path d="M197.6,0C122.5,0,61.2,61.3,61.2,136.4c0,47,24,88.7,60.3,113.2C52,279.4,2.8,348.4,2.8,428.6h39
		c0-86.3,69.6-155.9,155.9-155.9c41.8,0,79.1,17.1,107.1,43.8l-91.9,91.9l-1.2,6.1l-13.4,68.8l-6.1,28.6l28.6-6.1l68.8-13.4l6.1-1.2
		l196.6-196.6c22.6-22.6,22.6-60.2,0-82.8c-11.3-11.3-26.4-17-41.4-17c-14.7,0-29.5,5.6-40.8,16.4l-77.3,77.3
		c-17-16.3-37.1-29.6-59.1-39C310,225,334,183.3,334,136.4C334,61.3,272.7,0,197.6,0z M197.6,39c54,0,97.4,43.4,97.4,97.4
		s-43.4,97.4-97.4,97.4s-97.4-43.4-97.4-97.4S143.6,39,197.6,39z M450.9,233.8c4.9,0,10.1,1.6,14,5.5c7.8,7.8,7.8,19.6,0,27.4
		L276.1,455.4l-34.7,7.3l7.3-34.7l188.7-188.7C441.4,235.4,445.9,233.8,450.9,233.8z"/>
</g>
</svg>
